<?xml version="1.0" encoding="UTF-8" standalone="no"?><!DOCTYPE svg PUBLIC "-//W3C//DTD SVG 1.1//EN" "http://www.w3.org/Graphics/SVG/1.1/DTD/svg11.dtd"><svg width="100%" height="100%" viewBox="0 0 32 32" version="1.1" xmlns="http://www.w3.org/2000/svg" xmlns:xlink="http://www.w3.org/1999/xlink" xml:space="preserve" xmlns:serif="http://www.serif.com/" style="fill-rule:evenodd;clip-rule:evenodd;stroke-linejoin:round;stroke-miterlimit:2;"><path d="M10.75,5.384l0,4.116c0,2.899 2.351,5.25 5.25,5.25c0,0 0,0 0,0c2.899,-0 5.25,-2.351 5.25,-5.25l-0,-4.116c-0,-2.283 -1.851,-4.134 -4.134,-4.134l-2.232,0c-2.283,0 -4.134,1.851 -4.134,4.134Z" style="fill:url(#_Linear1);"/><path d="M10.75,6.91l0,0c0.99,0 1.968,-0.203 2.877,-0.595c0.108,-0.047 0.176,-0.076 0.176,-0.076c0.468,-0.125 0.96,-0.135 1.433,-0.03c0.443,0.098 0.981,0.218 1.453,0.323c0.679,0.151 1.924,0.112 2.399,0.09c0.124,-0.005 0.248,0.002 0.371,0.02c0.488,0.071 1.791,0.268 1.791,0.268l-0,-1.526c-0,-2.283 -1.851,-4.134 -4.134,-4.134l-2.232,0c-2.283,0 -4.134,1.851 -4.134,4.134l-0,1.526Z" style="fill:url(#_Linear2);"/><path d="M13.389,15.969c-0.662,-0.329 -1.428,-0.376 -2.125,-0.13c-0.002,0.001 -0.005,0.002 -0.007,0.003c-3.741,1.36 -6.411,4.948 -6.411,9.159c-0,1.117 -0,2.159 -0,3.001c-0,1.518 1.231,2.75 2.75,2.75l16.808,-0c1.519,-0 2.75,-1.232 2.75,-2.75c0,-0.842 0,-1.884 0,-3.001c0,-4.211 -2.67,-7.799 -6.41,-9.162c-0.003,-0.001 -0.005,-0.002 -0.008,-0.003c-0.7,-0.247 -1.472,-0.199 -2.136,0.134c-0.78,0.379 -1.665,0.591 -2.599,0.591c-0.001,0 -0.001,0 -0.002,0c-0.935,0 -1.821,-0.212 -2.61,-0.592l-0,-0Z" style="fill:url(#_Linear3);"/><path d="M19.25,15.741l0,4.759c-0.772,0.301 -1.319,1.051 -1.319,1.929c-0,1.142 0.927,2.069 2.069,2.069c1.142,-0 2.069,-0.927 2.069,-2.069c0,-0.878 -0.547,-1.628 -1.319,-1.929l0,-4.659l-0.014,-0.005c-0.481,-0.17 -0.996,-0.2 -1.486,-0.095Zm-8,0.103l0,4.772l-1.366,1.315c-0.147,0.141 -0.23,0.336 -0.23,0.54l0,1.134c0,0.414 0.336,0.75 0.75,0.75c0.414,0 0.75,-0.336 0.75,-0.75l0,-0.815l0.846,-0.814l0.846,0.814c-0,0 -0,0.815 -0,0.815c-0,0.414 0.336,0.75 0.75,0.75c0.414,0 0.75,-0.336 0.75,-0.75l-0,-1.134c-0,-0.204 -0.083,-0.399 -0.23,-0.54l-1.366,-1.315l0,-4.871c-0.49,-0.106 -1.005,-0.076 -1.486,0.094l-0.014,0.005Zm8.75,6.016c0.314,-0 0.569,0.255 0.569,0.569c0,0.314 -0.255,0.569 -0.569,0.569c-0.314,-0 -0.569,-0.255 -0.569,-0.569c-0,-0.314 0.255,-0.569 0.569,-0.569Z" style="fill:url(#_Linear4);"/><defs><linearGradient id="_Linear1" x1="0" y1="0" x2="1" y2="0" gradientUnits="userSpaceOnUse" gradientTransform="matrix(5.7604e-16,-9.40745,9.40745,5.7604e-16,15.6968,8.40745)"><stop offset="0" style="stop-color:#ffb7bd;stop-opacity:1"/><stop offset="1" style="stop-color:#ff2c3e;stop-opacity:1"/></linearGradient><linearGradient id="_Linear2" x1="0" y1="0" x2="1" y2="0" gradientUnits="userSpaceOnUse" gradientTransform="matrix(9.22835e-16,15.071,-15.071,9.22835e-16,16.9747,2.25)"><stop offset="0" style="stop-color:#455a63;stop-opacity:1"/><stop offset="1" style="stop-color:#18313c;stop-opacity:1"/></linearGradient><linearGradient id="_Linear3" x1="0" y1="0" x2="1" y2="0" gradientUnits="userSpaceOnUse" gradientTransform="matrix(3.12028e-15,50.958,-50.958,3.12028e-15,18.5426,19.7186)"><stop offset="0" style="stop-color:#d9defb;stop-opacity:1"/><stop offset="1" style="stop-color:#4460ff;stop-opacity:1"/></linearGradient><linearGradient id="_Linear4" x1="0" y1="0" x2="1" y2="0" gradientUnits="userSpaceOnUse" gradientTransform="matrix(1.06054e-15,17.3199,-17.3199,1.06054e-15,16,15.6801)"><stop offset="0" style="stop-color:#455a63;stop-opacity:1"/><stop offset="1" style="stop-color:#18313c;stop-opacity:1"/></linearGradient></defs></svg>