<?xml version="1.0" encoding="UTF-8" standalone="no"?><!DOCTYPE svg PUBLIC "-//W3C//DTD SVG 1.1//EN" "http://www.w3.org/Graphics/SVG/1.1/DTD/svg11.dtd"><svg width="100%" height="100%" viewBox="0 0 32 32" version="1.1" xmlns="http://www.w3.org/2000/svg" xmlns:xlink="http://www.w3.org/1999/xlink" xml:space="preserve" xmlns:serif="http://www.serif.com/" style="fill-rule:evenodd;clip-rule:evenodd;stroke-linejoin:round;stroke-miterlimit:2;"><path d="M23.309,5.768l0,2.692c0,0.414 0.337,0.75 0.75,0.75c0.414,-0 0.75,-0.336 0.75,-0.75l0,-2.692c0,-0.414 -0.336,-0.75 -0.75,-0.75c-0.413,-0 -0.75,0.336 -0.75,0.75Z" style="fill:url(#_Linear1);"/><path d="M23.309,10.883l0,2.692c0,0.414 0.337,0.75 0.75,0.75c0.414,-0 0.75,-0.336 0.75,-0.75l0,-2.692c0,-0.414 -0.336,-0.75 -0.75,-0.75c-0.413,-0 -0.75,0.336 -0.75,0.75Z" style="fill:url(#_Linear2);"/><path d="M24.271,3.998c0,-1.518 -1.231,-2.749 -2.75,-2.75l-11.138,0c-1.519,0.001 -2.75,1.232 -2.75,2.75c-0,5.154 -0,18.845 -0,23.999c-0,1.519 1.231,2.75 2.75,2.75l11.138,-0c1.519,-0 2.75,-1.231 2.75,-2.75l0,-23.999Z" style="fill:url(#_Linear3);"/><path d="M18.259,12.693l-0,-0.464c-0,-0.829 -0.672,-1.5 -1.5,-1.5l-1.614,-0c-0.828,-0 -1.5,0.671 -1.5,1.5l0,0.464c0,0 -0.464,0 -0.464,0c-0.829,0 -1.5,0.672 -1.5,1.5l-0,1.614c-0,0.828 0.671,1.5 1.5,1.5l0.464,-0c0,-0 0,0.464 0,0.464c0,0.829 0.672,1.5 1.5,1.5l1.614,0c0.828,0 1.5,-0.671 1.5,-1.5l-0,-0.464c-0,-0 0.464,-0 0.464,-0c0.829,-0 1.5,-0.672 1.5,-1.5l0,-1.614c0,-0.828 -0.671,-1.5 -1.5,-1.5l-0.464,0Z" style="fill:url(#_Linear4);"/><path d="M12.452,26.306l7,0c0.414,0 0.75,-0.336 0.75,-0.75c-0,-0.414 -0.336,-0.75 -0.75,-0.75l-7,0c-0.414,0 -0.75,0.336 -0.75,0.75c0,0.414 0.336,0.75 0.75,0.75Z" style="fill:url(#_Linear5);"/><path d="M21.521,1.248l-11.138,0c-1.519,0.001 -2.75,1.232 -2.75,2.75c-0,5.154 -0,18.845 -0,23.999c-0,1.519 1.231,2.75 2.75,2.75l11.138,-0c1.519,-0 2.75,-1.231 2.75,-2.75l0,-23.999c0,-1.518 -1.231,-2.749 -2.75,-2.75Zm-0.595,1.5c-0.109,0.33 -0.294,0.633 -0.545,0.884c-0.422,0.422 -0.994,0.659 -1.591,0.659c-1.575,-0 -4.039,-0 -5.614,-0c-0.597,-0 -1.169,-0.237 -1.591,-0.659c-0.251,-0.251 -0.436,-0.554 -0.545,-0.884l-0.657,0c-0.69,0.001 -1.25,0.56 -1.25,1.25c-0,5.154 -0,18.845 -0,23.999c-0,0.69 0.56,1.25 1.25,1.25c-0,-0 11.138,-0 11.138,-0c0.69,-0 1.25,-0.56 1.25,-1.25l0,-23.999c0,-0.69 -0.56,-1.249 -1.25,-1.25l-0.595,0Z" style="fill:url(#_Linear6);"/><defs><linearGradient id="_Linear1" x1="0" y1="0" x2="1" y2="0" gradientUnits="userSpaceOnUse" gradientTransform="matrix(-4.28878,5.25225e-16,-5.25225e-16,-4.28878,25.1826,9.5)"><stop offset="0" style="stop-color:#455a64;stop-opacity:1"/><stop offset="1" style="stop-color:#18313c;stop-opacity:1"/></linearGradient><linearGradient id="_Linear2" x1="0" y1="0" x2="1" y2="0" gradientUnits="userSpaceOnUse" gradientTransform="matrix(-4.28878,5.25225e-16,-5.25225e-16,-4.28878,25.1826,9.5)"><stop offset="0" style="stop-color:#455a64;stop-opacity:1"/><stop offset="1" style="stop-color:#18313c;stop-opacity:1"/></linearGradient><linearGradient id="_Linear3" x1="0" y1="0" x2="1" y2="0" gradientUnits="userSpaceOnUse" gradientTransform="matrix(2.00218e-15,32.6981,-32.6981,2.00218e-15,16.5709,20.5532)"><stop offset="0" style="stop-color:#d8ddfa;stop-opacity:1"/><stop offset="1" style="stop-color:#435eff;stop-opacity:1"/></linearGradient><linearGradient id="_Linear4" x1="0" y1="0" x2="1" y2="0" gradientUnits="userSpaceOnUse" gradientTransform="matrix(9.18485e-16,15,-15,9.18485e-16,16.0953,14)"><stop offset="0" style="stop-color:#f45558;stop-opacity:1"/><stop offset="1" style="stop-color:#d40004;stop-opacity:1"/></linearGradient><linearGradient id="_Linear5" x1="0" y1="0" x2="1" y2="0" gradientUnits="userSpaceOnUse" gradientTransform="matrix(3.97449e-16,6.49084,-6.49084,3.97449e-16,16.0953,25.0317)"><stop offset="0" style="stop-color:#fdd44f;stop-opacity:1"/><stop offset="1" style="stop-color:#d7a400;stop-opacity:1"/></linearGradient><linearGradient id="_Linear6" x1="0" y1="0" x2="1" y2="0" gradientUnits="userSpaceOnUse" gradientTransform="matrix(9.10072e-16,14.8626,-14.8626,9.10072e-16,24,20.1374)"><stop offset="0" style="stop-color:#455a64;stop-opacity:1"/><stop offset="1" style="stop-color:#18313c;stop-opacity:1"/></linearGradient></defs></svg>