<?xml version="1.0" encoding="UTF-8" standalone="no"?><!DOCTYPE svg PUBLIC "-//W3C//DTD SVG 1.1//EN" "http://www.w3.org/Graphics/SVG/1.1/DTD/svg11.dtd"><svg width="100%" height="100%" viewBox="0 0 32 32" version="1.1" xmlns="http://www.w3.org/2000/svg" xmlns:xlink="http://www.w3.org/1999/xlink" xml:space="preserve" xmlns:serif="http://www.serif.com/" style="fill-rule:evenodd;clip-rule:evenodd;stroke-linejoin:round;stroke-miterlimit:2;"><path d="M20.314,5.178c-0.414,-0 -0.75,0.335 -0.75,0.75l-0,0.856c-0,-0 -7.128,-0 -7.128,-0c0,-0 0,-0.856 0,-0.856c0,-0.415 -0.336,-0.75 -0.75,-0.75l-3.189,-0c-1.542,-0 -2.792,1.25 -2.792,2.792l-0,19.988c-0,1.542 1.25,2.792 2.792,2.792c3.669,-0 11.337,-0 15.006,-0c1.542,0 2.792,-1.25 2.792,-2.792l0,-19.988c0,-1.542 -1.25,-2.792 -2.792,-2.792c0,-0 -3.189,-0 -3.189,-0Z" style="fill:url(#_Linear1);"/><path d="M23.423,5.178l-3.109,-0c-0.414,-0 -0.75,0.335 -0.75,0.75l-0,0.856c-0,-0 -7.128,-0 -7.128,-0c0,-0 0,-0.856 0,-0.856c0,-0.415 -0.336,-0.75 -0.75,-0.75l-2.834,-0l-0,21.949c-0,0.415 0.336,0.75 0.75,0.75l13.071,0c0.414,0 0.75,-0.335 0.75,-0.75l-0,-21.949Z" style="fill:url(#_Linear2);"/><path d="M13.021,3.738l-1.335,-0c-0.414,-0 -0.75,0.336 -0.75,0.75l0,3.046c0,0.414 0.336,0.75 0.75,0.75l8.628,-0c0.414,-0 0.75,-0.336 0.75,-0.75l-0,-3.046c-0,-0.414 -0.336,-0.75 -0.75,-0.75l-1.335,-0c-0.253,-1.415 -1.492,-2.49 -2.979,-2.49c-1.487,-0 -2.726,1.075 -2.979,2.49Z" style="fill:url(#_Linear3);"/><path d="M12.404,21.326l7.467,-0c0.414,-0 0.75,-0.336 0.75,-0.75c-0,-0.414 -0.336,-0.75 -0.75,-0.75l-7.467,-0c-0.414,-0 -0.75,0.336 -0.75,0.75c-0,0.414 0.336,0.75 0.75,0.75Z" style="fill:url(#_Linear4);"/><path d="M12.404,24.387l7.467,-0c0.414,-0 0.75,-0.336 0.75,-0.75c-0,-0.414 -0.336,-0.75 -0.75,-0.75l-7.467,-0c-0.414,-0 -0.75,0.336 -0.75,0.75c-0,0.414 0.336,0.75 0.75,0.75Z" style="fill:url(#_Linear5);"/><path d="M20.438,12.934l-1.329,-0c-0.199,-0 -0.39,0.079 -0.531,0.219l-1.469,1.47c-0,-0 -1.104,-3.185 -1.104,-3.185c-0.089,-0.257 -0.311,-0.446 -0.579,-0.493c-0.268,-0.047 -0.541,0.055 -0.712,0.266l-1.528,1.886c-0,-0 -1.624,-0 -1.624,-0c-0.414,-0 -0.75,0.336 -0.75,0.75c0,0.414 0.336,0.75 0.75,0.75l1.981,-0c0.227,-0 0.441,-0.102 0.583,-0.278l0.904,-1.115c-0,0 1.054,3.042 1.054,3.042c0.084,0.244 0.288,0.427 0.54,0.485c0.252,0.058 0.516,-0.018 0.699,-0.201l2.096,-2.096c0,-0 1.019,-0 1.019,-0c0.414,-0 0.75,-0.336 0.75,-0.75c-0,-0.414 -0.336,-0.75 -0.75,-0.75Z" style="fill:url(#_Linear6);"/><defs><linearGradient id="_Linear1" x1="0" y1="0" x2="1" y2="0" gradientUnits="userSpaceOnUse" gradientTransform="matrix(1.84458e-15,30.1243,-30.1243,1.84458e-15,16.5858,18.4756)"><stop offset="0" style="stop-color:#455a63;stop-opacity:1"/><stop offset="1" style="stop-color:#18313c;stop-opacity:1"/></linearGradient><linearGradient id="_Linear2" x1="0" y1="0" x2="1" y2="0" gradientUnits="userSpaceOnUse" gradientTransform="matrix(1.56142e-15,-25.5,25.5,1.56142e-15,16.9747,12)"><stop offset="0" style="stop-color:#d8ddfa;stop-opacity:1"/><stop offset="1" style="stop-color:#1687c9;stop-opacity:1"/></linearGradient><linearGradient id="_Linear3" x1="0" y1="0" x2="1" y2="0" gradientUnits="userSpaceOnUse" gradientTransform="matrix(7.43644e-16,12.1446,-12.1446,7.43644e-16,16.3032,3.61665)"><stop offset="0" style="stop-color:#455a64;stop-opacity:1"/><stop offset="1" style="stop-color:#18313c;stop-opacity:1"/></linearGradient><linearGradient id="_Linear4" x1="0" y1="0" x2="1" y2="0" gradientUnits="userSpaceOnUse" gradientTransform="matrix(5.47596e-16,8.94293,-8.94293,5.47596e-16,16.5858,20.7113)"><stop offset="0" style="stop-color:#facf45;stop-opacity:1"/><stop offset="1" style="stop-color:#cc9c00;stop-opacity:1"/></linearGradient><linearGradient id="_Linear5" x1="0" y1="0" x2="1" y2="0" gradientUnits="userSpaceOnUse" gradientTransform="matrix(5.47596e-16,8.94293,-8.94293,5.47596e-16,16.5858,20.7113)"><stop offset="0" style="stop-color:#facf45;stop-opacity:1"/><stop offset="1" style="stop-color:#cc9c00;stop-opacity:1"/></linearGradient><linearGradient id="_Linear6" x1="0" y1="0" x2="1" y2="0" gradientUnits="userSpaceOnUse" gradientTransform="matrix(6.61005e-16,10.795,-10.795,6.61005e-16,16,12.8418)"><stop offset="0" style="stop-color:#f05558;stop-opacity:1"/><stop offset="1" style="stop-color:#d10004;stop-opacity:1"/></linearGradient></defs></svg>